Coordinates
version=1
nRows=13
nColumns=36
inDegrees=yes

Units are S.I. units (second, meters, Newtons, ...)
If the header above contains a line with 'inDegrees', this indicates whether rotational values are in degrees (yes) or radians (no).

endheader
time	pelvis_tilt	pelvis_list	pelvis_rotation	pelvis_tx	pelvis_ty	pelvis_tz	hip_flexion_r	hip_adduction_r	hip_rotation_r	knee_angle_r	knee_angle_r_beta	ankle_angle_r	subtalar_angle_r	mtp_angle_r	hip_flexion_l	hip_adduction_l	hip_rotation_l	knee_angle_l	knee_angle_l_beta	ankle_angle_l	subtalar_angle_l	mtp_angle_l	lumbar_extension	lumbar_bending	lumbar_rotation	arm_flex_r	arm_add_r	arm_rot_r	elbow_flex_r	pro_sup_r	arm_flex_l	arm_add_l	arm_rot_l	elbow_flex_l	pro_sup_l
     30.00000000	     -5.94661552	      1.03385511	      0.86779873	      0.75542225	      1.01800667	      0.82075458	     28.28742510	     -2.09556697	     -5.85059185	      9.52988322	      0.16632784	      5.92516199	      3.95703434	     -7.49999987	     -1.70127279	      1.72230049	     -8.65120241	     13.26422430	      0.23150439	     16.93843860	      5.91104369	     -7.49999987	     -6.83546564	      2.97289291	     -4.12133267	      0.95993378	     -9.10934254	     -6.40863210	     16.28803123	     76.39287787	     11.19784772	     -9.65789502	     -4.20116676	     36.07805588	     72.87859520
     30.01666670	     -5.64509918	      0.54288487	      0.60883206	      0.75686849	      1.01779537	      0.82096592	     27.63205422	     -1.35474389	     -5.95556475	     10.25341254	      0.17895581	      4.57319026	      2.81213874	     -7.49999987	     -2.30671290	      1.11177818	     -9.15394072	     15.00586339	      0.26190172	     16.25574128	      6.15352666	     -7.49999987	     -6.74588006	      3.66084141	     -3.98588217	      1.27078869	     -9.48557272	     -6.08622055	     15.68437037	     76.74952698	     10.90433226	     -9.06103272	     -3.71953069	     34.61583804	     72.72567036
     30.03333330	     -5.44330522	      0.12624507	      0.34885423	      0.75910130	      1.01700459	      0.82142482	     27.02041693	     -0.70506829	     -5.88334330	     11.03765166	      0.19264336	      3.02433552	      1.29653304	     -7.49999987	     -2.63877563	      0.62156849	     -9.43232264	     16.90101534	      0.29497836	     15.21946052	      5.80014763	     -7.49999987	     -6.57227510	      4.25269989	     -3.71541678	      1.67656164	     -9.86644730	     -5.83975756	     15.07984814	     76.99998406	     10.55580714	     -8.39037862	     -3.43365073	     33.14972135	     72.59643886
     30.05000000	     -5.18429019	     -0.40030176	      0.13463412	      0.76144762	      1.01620272	      0.82205706	     26.32827749	      0.00573848	     -5.95243985	     11.86231321	      0.20703642	      1.76488197	      0.10809194	     -7.49999987	     -2.76007438	     -0.00162975	     -9.64576585	     18.99340967	      0.33149753	     14.15367217	      5.25986857	     -7.49999987	     -6.61561164	      4.98506989	     -3.43724055	      2.13406851	    -10.28135396	     -5.83354941	     14.94099413	     77.15761676	     10.06661586	     -7.74652482	     -3.29722970	     32.20417443	     72.64746867
     30.06666670	     -5.04848969	     -0.95255279	     -0.15712610	      0.76488745	      1.01511258	      0.82400384	     25.83738690	      0.83238139	     -5.59994013	     12.85838971	      0.22442124	      0.65528037	     -1.70709640	     -7.49999987	     -2.51115729	     -0.69176213	     -9.69015531	     21.31519498	      0.37202033	     12.86769237	      4.38425639	     -7.49999987	     -6.47741658	      5.67645588	     -2.96380099	      2.54496164	    -10.64215931	     -5.71767451	     14.69041668	     77.42264216	      9.77223666	     -7.11391363	     -3.11150501	     30.71445643	     72.69941858
     30.08333330	     -4.96771433	     -1.89460120	     -0.45393764	      0.77068609	      1.01427481	      0.82759778	     25.39994052	      2.06158673	     -5.50718612	     14.02073033	      0.24470791	      0.39658457	     -3.05375677	     -7.49999987	     -2.13029586	     -1.87516129	     -9.39085275	     23.90012243	      0.41713583	     11.50651127	      3.45483559	     -7.49999987	     -6.12812310	      6.75846318	     -2.47431976	      2.72126583	    -11.05289540	     -5.65878138	     14.63444830	     77.55635839	      9.11379003	     -6.49565388	     -3.06074578	     29.65278129	     72.69075964
     30.10000000	     -4.99273470	     -3.08284061	     -0.84209778	      0.77818187	      1.01453659	      0.83209268	     25.01843558	      3.61492809	     -5.43150801	     15.24878451	      0.26614150	      0.77531701	     -4.46438074	     -7.49999987	     -1.78740531	     -3.35497978	     -8.63312227	     26.54220889	      0.46324894	      9.94534278	      2.64138245	     -7.49999987	     -5.54990894	      8.08563378	     -1.91464337	      2.61838967	    -11.40763150	     -5.62571289	     14.64218976	     77.59736365	      8.00267026	     -5.88970919	     -3.21551773	     28.44748944	     72.59106063
     30.11666670	     -5.14866356	     -4.60669326	     -1.08595556	      0.78601541	      1.01477171	      0.83628326	     24.65408055	      5.50038781	     -5.40828295	     16.40478034	      0.28631743	      1.63565268	     -6.03384925	     -7.49999987	     -1.42008897	     -5.23272535	     -7.44966625	     29.16848380	      0.50908608	      7.99719608	      1.96514128	     -7.49999987	     -4.54733670	      9.69438538	     -1.37617002	      2.37540633	    -11.89089721	     -5.62214377	     14.63617336	     77.57548946	      6.71252433	     -5.12493003	     -3.59135915	     26.95836903	     72.39806086
     30.13333330	     -5.74032982	     -6.03556572	     -1.09121346	      0.79186350	      1.01480677	      0.83978916	     24.64748395	      7.23206604	     -5.44105089	     17.40941049	      0.30385153	      2.71815411	     -7.80320179	     -7.49999987	     -0.40180761	     -7.07530564	     -5.95811450	     31.93418178	      0.55735662	      5.51422823	      1.57511758	     -7.49999987	     -2.85461040	     11.15313830	     -1.09125544	      1.94443836	    -12.22901485	     -5.57243309	     14.31437363	     77.55194736	      5.55168932	     -4.22144799	     -4.79933791	     24.09092260	     71.93042464
     30.15000000	     -5.88667168	     -7.38682680	     -0.96571359	      0.79405780	      1.01527334	      0.84151157	     24.04650398	      8.81140497	     -5.64190903	     18.15262579	      0.31682309	      4.44874064	     -8.60873373	     -7.49999987	      0.55059696	     -8.86950881	     -4.57890280	     34.95689031	      0.61011283	      2.59860510	      1.20140153	     -7.49999987	     -1.94845614	     12.48262404	     -0.79622253	      1.60705507	    -12.60722609	     -5.12438832	     14.32795740	     76.26249162	      4.27075836	     -3.49702770	     -5.88899824	     22.32732426	     70.61599714
     30.16666670	     -6.04059972	     -8.50120227	     -0.67695614	      0.79383434	      1.01650095	      0.84145284	     23.34193214	     10.10251929	     -5.76517012	     18.63028925	      0.32515989	      6.02056832	     -9.45905711	     -7.49999987	      2.10653354	    -10.43123503	     -3.19012250	     38.45408197	      0.67115034	     -0.68764340	      0.98405824	     -7.49999987	     -1.08467850	     13.58547650	     -0.80617494	      1.54052223	    -12.83392550	     -5.34372825	     14.28801638	     74.97084500	      3.09510254	     -2.91548135	     -6.36054262	     20.73752034	     69.67362722
     30.18333330	     -5.76844932	     -9.41879551	     -0.37136434	      0.79373510	      1.01805852	      0.84120791	     22.05117350	     11.17771501	     -5.94965465	     18.81308003	      0.32835019	      7.49295442	     -9.77499971	     -7.49999987	      3.62344576	    -11.73181082	     -1.94271777	     42.24271401	      0.73727444	     -4.53838456	      0.45841380	     -7.49999987	     -0.97531963	     14.41961353	     -0.48947735	      1.38806850	    -13.13359917	     -5.40842218	     14.67709548	     74.85787632	      2.17006298	     -2.54657812	     -6.50639970	     19.80152950	     69.58021489
     30.20000000	     -5.58363374	    -10.06607744	      0.06836147	      0.79497708	      1.01867092	      0.84211972	     20.78506782	     11.89609453	     -6.37637610	     18.78135565	      0.32779649	      8.67095716	     -9.85913636	     -7.49999987	      5.52198644	    -12.66346917	     -0.60298405	     46.12478989	      0.80502945	     -8.46651518	     -0.16821506	     -7.49999987	     -0.81364385	     14.92555858	     -0.33796179	      1.24105090	    -13.29493049	     -5.57135954	     15.10044590	     74.67378593	      1.52552868	     -2.29766643	     -6.68633781	     18.64510189	     69.46286592
